<svg width="101" height="57" viewBox="0 0 101 57" fill="none" xmlns="http://www.w3.org/2000/svg">
<g id="logo">
<g id="Group">
<path id="Vector" d="M100.53 24.104C98.6567 24.0907 96.8333 24.5649 95.08 25.156C88.2172 27.5772 82.1124 31.7417 75.2596 34.1061C72.274 35.0746 68.941 35.8995 66.0156 34.5002C65.5647 34.1996 65.3076 33.7621 65.0003 33.2411C64.5061 32.3895 64.132 31.4945 63.3205 30.7665C62.0982 29.6611 60.6255 30.0719 59.3163 30.6095C58.0506 31.1339 56.9085 31.8285 55.753 32.5031C55.1953 32.8304 54.6376 33.1543 54.0999 33.4115C53.8561 33.5283 53.5923 33.6386 53.3652 33.6886C53.3652 33.6219 53.3652 33.5417 53.3685 33.4582C53.5388 31.9554 54.1633 30.4693 54.701 29.0399C54.7745 28.8195 54.7945 28.6158 54.8212 28.362C54.8346 28.1917 54.8413 28.008 54.8146 27.8377C54.7611 27.2967 54.3036 26.8024 53.7392 26.789C53.0179 26.7623 52.4 27.3501 51.9091 27.7642C50.8271 28.736 49.8219 29.808 48.7899 30.7799C47.6011 31.8786 46.3988 33.0274 44.9561 33.6586C44.6155 33.7955 44.2481 33.8823 43.9442 33.7822C43.8774 33.7655 43.6837 33.7187 43.6236 33.712C43.6436 33.1744 43.9509 32.5899 44.2013 32.079C44.9761 30.5995 46.1316 28.9364 47.0534 27.4837C47.4675 26.8224 47.935 26.1111 48.2589 25.343C48.5328 24.7252 48.5929 23.9304 47.9417 23.5162C47.0834 22.9986 46.135 23.7701 45.4871 24.2376C44.719 24.7953 44.011 25.5267 43.3664 26.2213C41.326 28.3987 39.2387 30.693 36.9845 32.6233C36.4401 33.0842 35.7388 33.6285 35.1344 33.9358C35.3147 33.0808 35.642 32.0957 35.9325 31.2708C36.4301 29.8448 36.9845 28.4254 37.5222 26.9961C39.6996 21.2754 41.9571 15.5647 44.4919 9.9909C45.1298 8.59829 45.7843 7.21235 46.4756 5.85314C46.8229 5.1752 47.1769 4.5006 47.5543 3.84604C47.8549 3.34511 48.1487 2.81077 48.5462 2.40334C48.9202 2.42672 49.2508 1.94916 48.9035 1.59516C48.2957 1.0842 47.6712 1.86901 47.3372 2.31985C45.7543 4.54736 44.542 6.99528 43.2796 9.40313C40.481 14.9101 37.796 20.4772 35.5084 26.218C34.5366 28.8095 33.538 31.401 33.0805 34.1662C33.0371 34.5603 33.0204 35.0145 33.2074 35.4152C33.4412 35.9462 34.0356 36.1967 34.5933 36.0598C35.0175 36.0798 35.3648 35.9596 35.7388 35.8093C36.6906 35.3818 37.4754 34.7373 38.2402 34.1028C40.1404 32.4697 41.8236 30.6763 43.5201 28.8629C43.9375 28.4254 44.3783 27.9278 44.8359 27.4369C44.709 27.634 44.5854 27.821 44.4752 28.0013C43.5835 29.5175 40.8851 33.0074 42.054 34.7473C42.3879 35.2449 42.8789 35.4586 43.4165 35.5488C44.1746 35.7826 44.9628 35.639 45.6407 35.3651C47.3773 34.6204 48.7298 33.3213 50.0456 32.089C50.8905 31.2808 51.6954 30.4492 52.5002 29.6644C52.527 29.6377 52.557 29.611 52.5837 29.5843C52.2731 30.4459 51.9893 31.3142 51.7789 32.2326C51.662 32.7903 51.5518 33.3814 51.6286 33.9959C51.7355 35.0946 52.6973 35.6757 53.7559 35.3852C55.4591 34.8809 56.7849 33.8089 58.3011 33.0107C59.1995 32.463 60.8292 31.7751 61.4871 31.7417C62.5424 31.8151 63.0066 33.2378 63.5409 34.0694C63.945 34.7807 64.5294 35.6156 65.3343 36.023C72.6046 39.4027 83.859 31.3008 90.4413 28.1683C93.624 26.6087 96.9268 24.9289 100.524 24.7786C100.707 24.7753 100.858 24.625 100.861 24.4413C100.861 24.251 100.711 24.0973 100.524 24.094L100.53 24.104ZM48.3391 2.33655C48.309 2.31985 48.279 2.30315 48.2589 2.27644C48.2857 2.29981 48.3124 2.31985 48.3391 2.33655ZM34.413 34.1562C34.2193 34.1796 34.0189 34.2029 34.0189 34.2029C34.1425 34.1428 34.2794 34.1295 34.413 34.1562Z" fill="#100C08"/>
<path id="Vector_2" d="M33.9587 24.5515C33.922 24.1775 33.8886 23.7901 33.6481 23.4261C33.3576 22.9819 32.7498 22.9652 32.4191 23.2858C31.828 23.8469 31.6911 24.7352 31.8047 25.49C31.818 25.5701 31.8815 25.6369 31.965 25.6569C32.0785 25.6803 32.1921 25.6068 32.2121 25.49C32.319 25.0491 32.4726 24.5749 32.7698 24.2476C32.7798 24.6784 32.6963 25.1527 32.6028 25.5868C32.2922 26.9727 31.631 28.3386 30.9063 29.5743C30.1683 30.8333 29.2733 32.0122 28.2647 32.9439C27.3463 33.7822 25.8201 34.7907 24.8483 33.7154C24.3307 33.0074 24.2371 32.0823 24.187 31.1272C24.1837 26.956 25.3659 22.7983 26.5849 18.764C29.1296 15.1205 31.267 11.0629 32.5127 8.53151C33.6014 6.11365 34.9706 3.67908 35.1409 0.967332C35.1576 0.663429 35.0107 0.189207 34.6199 0.0522834C33.5246 -0.378524 32.3123 1.97255 31.808 2.72396C30.4989 4.82456 27.3229 11.1564 24.9251 17.7755C24.1102 18.8776 23.2553 19.9462 22.3503 20.9748C18.9372 24.8721 15.4841 26.3282 14.7059 22.1337C14.8496 21.8198 14.9898 21.5058 15.1301 21.1886C15.7512 19.7759 16.3423 18.3432 16.8733 16.8805C17.5179 15.037 18.1891 13.1068 18.3494 11.0896C18.4329 10.1879 18.2526 8.79534 17.2006 8.39459C16.6663 8.14746 16.0685 8.3111 15.6911 8.70851C14.8629 9.60686 14.4655 10.8058 14.0547 11.8744C13.7942 12.6292 13.5705 13.3873 13.3734 14.152C12.799 16.5432 12.1879 19.826 12.7423 22.5444C12.4183 23.2625 12.0877 23.9805 11.7504 24.6918C8.47093 31.548 4.70387 38.2272 0.0852102 44.2618C-0.0450339 44.4288 -0.0249964 44.6726 0.138644 44.8162C0.305623 44.9631 0.562772 44.9431 0.706374 44.7761C2.73017 42.4484 4.55359 39.9537 6.25678 37.3889C8.94849 33.3146 11.3764 29.0667 13.5137 24.6751C13.5872 24.8053 13.6673 24.9356 13.7508 25.0625C14.6158 26.3315 16.3056 26.936 17.7951 26.6121C19.6185 26.2113 21.4853 24.8154 23.2653 22.9285C21.3885 29.6511 21.0812 35.5856 25.2724 36.357C29.9612 37.065 34.1658 28.4856 33.9587 24.5549V24.5515ZM15.8715 12.5023C16.0785 11.9012 16.2856 11.3067 16.5527 10.7624C16.5527 10.8392 16.5527 10.9193 16.5494 10.9995C16.4225 12.8028 15.8414 14.5528 15.257 16.3128C15.0733 16.8438 14.8796 17.3681 14.6792 17.8957C14.8863 16.0723 15.3004 14.2389 15.8715 12.4989V12.5023ZM31.8214 5.35222C32.3724 4.25683 32.9602 3.10133 33.6548 2.08276C33.5713 2.27979 33.4811 2.47683 33.3976 2.67386C32.6897 4.41379 31.9182 6.12366 31.0432 7.80014C30.5223 8.792 29.9846 9.77718 29.4302 10.7557C30.1649 8.92558 30.9564 7.1222 31.818 5.35222H31.8214ZM32.9702 24.064C32.9702 24.064 32.9835 24.0506 32.9902 24.0473C33.0203 24.0306 33.0303 24.0506 32.9702 24.064Z" fill="#100C08"/>
<path id="Vector_3" d="M33.3243 18.4969C33.5615 19.0379 34.2928 18.7941 34.4832 18.4034C34.8105 17.8289 35.0175 17.2979 35.0743 16.5833C35.0843 16.3862 35.1043 15.9888 34.9207 15.7985C34.8806 15.7617 34.8305 15.735 34.7871 15.705C34.58 15.5747 34.2861 15.5313 34.0591 15.6382C33.9255 15.7016 33.7885 15.8452 33.7117 15.9354C33.3978 16.3295 33.0004 16.807 33.1206 17.3347C33.1707 17.4249 33.1373 17.5083 33.341 17.6152C33.2442 17.9024 33.1574 18.2063 33.321 18.4969H33.3243Z" fill="#100C08"/>
</g>
<g id="Group_2">
<path id="Vector_4" d="M25.5928 45.0166V43.2199L24.6878 44.7026H24.3672L23.4722 43.2599V45.0199H22.8076V42.0243H23.392L24.5375 43.8878L25.663 42.0243H26.2441L26.2541 45.0199H25.5895L25.5928 45.0166Z" fill="#100C08"/>
<path id="Vector_5" d="M28.9194 42.021H29.6274V45.0166H28.9194V42.021Z" fill="#100C08"/>
<path id="Vector_6" d="M33.4074 43.841L32.9966 44.2618V45.0199H32.292V42.0243H32.9966V43.4236L34.3492 42.0243H35.134L33.8683 43.3601L35.2108 45.0199H34.3859L33.4074 43.841Z" fill="#100C08"/>
<path id="Vector_7" d="M39.3423 44.3754H37.9229L37.6524 45.0166H36.9277L38.2903 42.021H38.9883L40.3542 45.0166H39.6128L39.3423 44.3754ZM39.1185 43.8478L38.6343 42.6989L38.15 43.8478H39.1185Z" fill="#100C08"/>
<path id="Vector_8" d="M25.0989 49.0775H25.4094V50.2197C25.2658 50.3432 25.0989 50.4368 24.9018 50.5035C24.7048 50.5703 24.5011 50.6004 24.2873 50.6004C23.9801 50.6004 23.7063 50.5336 23.4625 50.4034C23.2187 50.2731 23.025 50.0894 22.8847 49.859C22.7444 49.6252 22.6743 49.3647 22.6743 49.0775C22.6743 48.7903 22.7444 48.5298 22.8847 48.2961C23.025 48.0623 23.2153 47.882 23.4625 47.7517C23.7063 47.6215 23.9834 47.5547 24.2907 47.5547C24.5244 47.5547 24.7382 47.5914 24.9319 47.6649C25.1256 47.7384 25.2926 47.8452 25.4261 47.9888L25.2258 48.1892C24.9853 47.9554 24.6781 47.8385 24.304 47.8385C24.0569 47.8385 23.8332 47.892 23.6328 47.9989C23.4324 48.1057 23.2754 48.2527 23.1619 48.443C23.0484 48.6334 22.9916 48.8438 22.9916 49.0775C22.9916 49.3113 23.0484 49.5217 23.1619 49.7121C23.2754 49.8991 23.4324 50.0494 23.6294 50.1562C23.8265 50.2631 24.0502 50.3199 24.2974 50.3199C24.6113 50.3199 24.8784 50.2431 25.0955 50.0894V49.0775H25.0989Z" fill="#100C08"/>
<path id="Vector_9" d="M30.1784 49.7755H28.4752L28.1078 50.577H27.7705L29.1698 47.5814H29.4904L30.8897 50.577H30.5491L30.1817 49.7755H30.1784ZM30.0615 49.5184L29.3268 47.9087L28.592 49.5184H30.0615Z" fill="#100C08"/>
<path id="Vector_10" d="M33.5213 50.4968C33.3143 50.4267 33.1507 50.3298 33.0371 50.213L33.164 49.9692C33.2742 50.0794 33.4212 50.1662 33.6048 50.233C33.7885 50.2998 33.9789 50.3332 34.1726 50.3332C34.4464 50.3332 34.6501 50.2831 34.7871 50.1862C34.924 50.0894 34.9908 49.9592 34.9908 49.8022C34.9908 49.682 34.954 49.5885 34.8806 49.515C34.8071 49.4449 34.7169 49.3881 34.6067 49.3513C34.4999 49.3113 34.3496 49.2712 34.1559 49.2244C33.9254 49.1677 33.7418 49.1142 33.6048 49.0608C33.4679 49.0074 33.351 48.9272 33.2542 48.8203C33.1573 48.7135 33.1072 48.5665 33.1072 48.3795C33.1072 48.2292 33.1473 48.089 33.2308 47.9654C33.3143 47.8418 33.4379 47.7417 33.6048 47.6682C33.7752 47.5947 33.9822 47.558 34.2327 47.558C34.4063 47.558 34.58 47.5814 34.747 47.6281C34.914 47.6749 35.0609 47.7417 35.1811 47.8218L35.0709 48.0756C34.944 47.9921 34.8071 47.932 34.6602 47.8886C34.5132 47.8452 34.3729 47.8252 34.2327 47.8252C33.9655 47.8252 33.7618 47.8752 33.6282 47.9788C33.4913 48.079 33.4245 48.2092 33.4245 48.3695C33.4245 48.4897 33.4612 48.5866 33.5347 48.6601C33.6082 48.7335 33.7017 48.787 33.8152 48.827C33.9288 48.8671 34.0791 48.9072 34.2661 48.9539C34.4898 49.0074 34.6702 49.0608 34.8104 49.1142C34.9474 49.1677 35.0676 49.2478 35.1611 49.3547C35.2579 49.4616 35.3047 49.6052 35.3047 49.7888C35.3047 49.9391 35.2646 50.0794 35.1811 50.2029C35.0976 50.3265 34.9707 50.4267 34.8004 50.4968C34.6301 50.5703 34.4164 50.607 34.1659 50.607C33.9388 50.607 33.7217 50.5703 33.5113 50.5002L33.5213 50.4968Z" fill="#100C08"/>
<path id="Vector_11" d="M38.507 47.8553H37.4316V47.5814H39.9029V47.8553H38.8276V50.577H38.5037V47.8553H38.507Z" fill="#100C08"/>
<path id="Vector_12" d="M44.4481 50.5771L43.7501 49.6153C43.67 49.6253 43.5898 49.6286 43.5063 49.6286H42.6848V50.5804H42.3608V47.5848H43.5063C43.8971 47.5848 44.201 47.6749 44.4247 47.8586C44.6485 48.0423 44.7553 48.2928 44.7553 48.6134C44.7553 48.8471 44.6952 49.0442 44.575 49.2078C44.4548 49.3681 44.2811 49.485 44.0574 49.5551L44.8054 50.5837H44.4514L44.4481 50.5771ZM44.1909 49.1611C44.3512 49.0308 44.4314 48.8471 44.4314 48.61C44.4314 48.3729 44.3512 48.1826 44.1909 48.0523C44.0306 47.9221 43.8002 47.8586 43.4963 47.8586H42.6848V49.3614H43.4963C43.8002 49.3614 44.0306 49.2946 44.1909 49.1644V49.1611Z" fill="#100C08"/>
<path id="Vector_13" d="M47.9718 50.4033C47.7247 50.2697 47.5343 50.0894 47.3941 49.859C47.2538 49.6285 47.187 49.368 47.187 49.0808C47.187 48.7936 47.2571 48.5331 47.3941 48.3027C47.531 48.0723 47.7247 47.8886 47.9718 47.7584C48.2189 47.6248 48.4928 47.558 48.7934 47.558C49.0939 47.558 49.3678 47.6248 49.6116 47.755C49.8553 47.8853 50.0457 48.0689 50.186 48.2994C50.3262 48.5331 50.3964 48.7936 50.3964 49.0808C50.3964 49.368 50.3262 49.6285 50.186 49.8623C50.0457 50.0961 49.8553 50.2764 49.6116 50.4067C49.3678 50.5369 49.0973 50.6037 48.7934 50.6037C48.4895 50.6037 48.2156 50.5369 47.9718 50.4033ZM49.4513 50.1595C49.645 50.0527 49.7986 49.9057 49.9088 49.7154C50.019 49.525 50.0758 49.3146 50.0758 49.0808C50.0758 48.8471 50.019 48.6367 49.9088 48.4463C49.7986 48.256 49.645 48.109 49.4513 48.0021C49.2576 47.8953 49.0371 47.8419 48.7967 47.8419C48.5562 47.8419 48.3358 47.8953 48.1388 48.0021C47.9418 48.109 47.7881 48.256 47.6746 48.4463C47.561 48.6367 47.5076 48.8471 47.5076 49.0808C47.5076 49.3146 47.5644 49.525 47.6746 49.7154C47.7848 49.9057 47.9418 50.0527 48.1388 50.1595C48.3358 50.2664 48.5529 50.3198 48.7967 50.3198C49.0405 50.3198 49.2576 50.2664 49.4513 50.1595Z" fill="#100C08"/>
<path id="Vector_14" d="M22.9443 53.1385H24.19C24.5139 53.1385 24.7978 53.2019 25.0449 53.3288C25.2921 53.4557 25.4858 53.6327 25.6227 53.8598C25.7596 54.0869 25.8264 54.3474 25.8264 54.638C25.8264 54.9285 25.7563 55.189 25.6227 55.4161C25.4858 55.6432 25.2921 55.8202 25.0449 55.9471C24.7978 56.074 24.5106 56.1374 24.19 56.1374H22.9443V53.1418V53.1385ZM24.1733 55.8603C24.4405 55.8603 24.6742 55.8068 24.878 55.7033C25.0783 55.5998 25.2353 55.4562 25.3455 55.2725C25.4557 55.0888 25.5125 54.8751 25.5125 54.638C25.5125 54.4009 25.4557 54.1871 25.3455 54.0034C25.2353 53.8198 25.0783 53.6762 24.878 53.5726C24.6776 53.4691 24.4438 53.4157 24.1733 53.4157H23.2683V55.8636H24.1733V55.8603Z" fill="#100C08"/>
<path id="Vector_15" d="M30.6558 55.8603V56.1341H28.4951V53.1385H30.5924V53.4123H28.8191V54.4777H30.3987V54.7482H28.8191V55.8603H30.6592H30.6558Z" fill="#100C08"/>
<path id="Vector_16" d="M33.5448 56.054C33.3377 55.9838 33.1741 55.887 33.0605 55.7701L33.1875 55.5263C33.2977 55.6365 33.4446 55.7233 33.6283 55.7901C33.812 55.8569 34.0023 55.8903 34.196 55.8903C34.4699 55.8903 34.6736 55.8402 34.8105 55.7434C34.9474 55.6465 35.0142 55.5163 35.0142 55.3593C35.0142 55.2391 34.9775 55.1456 34.904 55.0721C34.8305 55.002 34.7404 54.9452 34.6302 54.9085C34.5233 54.8684 34.373 54.8283 34.1793 54.7816C33.9489 54.7248 33.7652 54.6714 33.6283 54.6179C33.4914 54.5645 33.3745 54.4843 33.2776 54.3775C33.1808 54.2706 33.1307 54.1237 33.1307 53.9367C33.1307 53.7864 33.1708 53.6461 33.2542 53.5225C33.3377 53.399 33.4613 53.2988 33.6283 53.2253C33.7986 53.1518 34.0057 53.1151 34.2561 53.1151C34.4298 53.1151 34.6034 53.1385 34.7704 53.1852C34.9374 53.232 35.0843 53.2988 35.2046 53.3789L35.0944 53.6328C34.9675 53.5493 34.8305 53.4891 34.6836 53.4457C34.5366 53.4023 34.3964 53.3823 34.2561 53.3823C33.989 53.3823 33.7852 53.4324 33.6517 53.5359C33.5147 53.6361 33.4479 53.7663 33.4479 53.9266C33.4479 54.0469 33.4847 54.1437 33.5581 54.2172C33.6316 54.2907 33.7251 54.3441 33.8387 54.3842C33.9522 54.4242 34.1025 54.4643 34.2895 54.5111C34.5133 54.5645 34.6936 54.6179 34.8339 54.6714C34.9708 54.7248 35.091 54.8049 35.1845 54.9118C35.2814 55.0187 35.3281 55.1623 35.3281 55.346C35.3281 55.4962 35.2881 55.6365 35.2046 55.7601C35.1211 55.8836 34.9942 55.9838 34.8239 56.054C34.6535 56.1274 34.4398 56.1642 34.1893 56.1642C33.9622 56.1642 33.7452 56.1274 33.5348 56.0573L33.5448 56.054Z" fill="#100C08"/>
<path id="Vector_17" d="M37.9795 53.1385H38.3034V56.1341H37.9795V53.1385Z" fill="#100C08"/>
<path id="Vector_18" d="M43.3928 54.638H43.7034V55.7801C43.5598 55.9037 43.3928 55.9972 43.1958 56.064C42.9987 56.1308 42.795 56.1608 42.5813 56.1608C42.274 56.1608 42.0002 56.094 41.7564 55.9638C41.5126 55.8335 41.3189 55.6499 41.1787 55.4194C41.0384 55.1857 40.9683 54.9252 40.9683 54.638C40.9683 54.3508 41.0384 54.0903 41.1787 53.8565C41.3189 53.6227 41.5093 53.4424 41.7564 53.3121C42.0002 53.1819 42.2774 53.1151 42.5846 53.1151C42.8184 53.1151 43.0321 53.1518 43.2258 53.2253C43.4195 53.2988 43.5865 53.4057 43.7201 53.5493L43.5197 53.7496C43.2793 53.5159 42.972 53.399 42.598 53.399C42.3509 53.399 42.1271 53.4524 41.9267 53.5593C41.7263 53.6661 41.5694 53.8131 41.4558 54.0034C41.3423 54.1938 41.2855 54.4042 41.2855 54.638C41.2855 54.8717 41.3423 55.0821 41.4558 55.2725C41.5694 55.4595 41.7263 55.6098 41.9234 55.7167C42.1204 55.8235 42.3442 55.8803 42.5913 55.8803C42.9052 55.8803 43.1724 55.8035 43.3895 55.6499V54.638H43.3928Z" fill="#100C08"/>
<path id="Vector_19" d="M49.1104 53.1385V56.1341H48.8432L46.8762 53.7029V56.1341H46.5522V53.1385H46.8194L48.7898 55.5697V53.1385H49.1104Z" fill="#100C08"/>
</g>
</g>
</svg>
