<svg width="177" height="79" viewBox="0 0 177 79" fill="none" xmlns="http://www.w3.org/2000/svg">
<g id="Group">
<path id="Vector" d="M176.42 42.3C173.132 42.2766 169.932 43.1088 166.855 44.1461C154.812 48.3951 144.098 55.7033 132.072 59.8526C126.833 61.5522 120.984 62.9998 115.85 60.5442C115.059 60.0167 114.608 59.249 114.069 58.3347C113.201 56.8402 112.545 55.2696 111.121 53.992C108.976 52.0521 106.391 52.773 104.094 53.7165C101.873 54.6367 99.8683 55.8557 97.8405 57.0395C96.8617 57.6139 95.883 58.1823 94.9395 58.6336C94.5116 58.8387 94.0486 59.0321 93.6501 59.12C93.6501 59.0028 93.6501 58.8622 93.656 58.7157C93.9549 56.0784 95.0508 53.4704 95.9944 50.962C96.1233 50.5752 96.1585 50.2177 96.2054 49.7723C96.2288 49.4734 96.2405 49.1511 96.1936 48.8522C96.0999 47.9028 95.297 47.0354 94.3065 47.012C93.0406 46.9651 91.9564 47.9966 91.0949 48.7233C89.196 50.4287 87.432 52.31 85.6211 54.0154C83.5347 55.9436 81.4248 57.9596 78.893 59.0673C78.2953 59.3076 77.6506 59.46 77.1173 59.2841C77.0001 59.2548 76.6602 59.1728 76.5547 59.1611C76.5898 58.2175 77.129 57.1919 77.5685 56.2952C78.9282 53.699 80.956 50.7804 82.5735 48.231C83.3002 47.0706 84.1207 45.8223 84.6892 44.4743C85.1698 43.3901 85.2753 41.9953 84.1325 41.2685C82.6263 40.3601 80.9619 41.714 79.8249 42.5344C78.4769 43.5132 77.2345 44.7966 76.1034 46.0157C72.5225 49.8368 68.8596 53.863 64.9037 57.2505C63.9484 58.0593 62.7177 59.0145 61.6569 59.5537C61.9734 58.0534 62.5477 56.3245 63.0576 54.8769C63.9309 52.3745 64.9037 49.8837 65.8473 47.3753C69.6684 37.3361 73.6302 27.3144 78.0784 17.533C79.1978 15.0891 80.3465 12.6569 81.5596 10.2717C82.1691 9.08195 82.7904 7.8981 83.4526 6.74942C83.9801 5.87032 84.4958 4.93262 85.1932 4.21762C85.8496 4.25865 86.4298 3.42058 85.8203 2.79935C84.7537 1.90267 83.6577 3.27992 83.0717 4.07111C80.2937 7.98015 78.1663 12.276 75.951 16.5015C71.0398 26.1657 66.3279 35.9354 62.3133 46.0098C60.6079 50.5577 58.8555 55.1055 58.0526 59.9581C57.9764 60.6497 57.9471 61.4467 58.2753 62.15C58.6856 63.0818 59.7288 63.5214 60.7075 63.2811C61.4518 63.3162 62.0613 63.1053 62.7177 62.8415C64.388 62.0914 65.7652 60.9603 67.1073 59.8468C70.442 56.9809 73.3958 53.8337 76.373 50.6514C77.1056 49.8837 77.8792 49.0104 78.6821 48.1489C78.4594 48.4947 78.2425 48.8229 78.0491 49.1394C76.4843 51.8001 71.7489 57.9245 73.8002 60.9779C74.3862 61.8511 75.2477 62.2262 76.1913 62.3844C77.5217 62.7947 78.9048 62.5426 80.0945 62.0621C83.142 60.7552 85.5156 58.4754 87.8247 56.3128C89.3074 54.8945 90.7198 53.4352 92.1322 52.058C92.1791 52.0111 92.2319 51.9642 92.2787 51.9173C91.7337 53.4294 91.2355 54.9531 90.8663 56.5648C90.6612 57.5435 90.4678 58.5809 90.6026 59.6592C90.7901 61.5874 92.478 62.6071 94.3358 62.0972C97.3247 61.2123 99.6514 59.331 102.312 57.9303C103.889 56.9692 106.749 55.7619 107.903 55.7033C109.755 55.8322 110.57 58.3289 111.507 59.7882C112.217 61.0365 113.242 62.5016 114.655 63.2166C127.413 69.1476 147.164 54.9297 158.715 49.4324C164.3 46.6955 170.096 43.7476 176.408 43.4839C176.73 43.478 176.994 43.2143 177 42.8919C177 42.5579 176.736 42.2883 176.408 42.2824L176.42 42.3ZM84.8299 4.10041C84.7771 4.07111 84.7244 4.0418 84.6892 3.99492C84.7361 4.03594 84.783 4.07111 84.8299 4.10041ZM60.391 59.9405C60.0511 59.9816 59.6995 60.0226 59.6995 60.0226C59.9163 59.9171 60.1566 59.8936 60.391 59.9405Z" fill="#100C08"/>
<path id="Vector_2" d="M59.5939 43.0854C59.5295 42.429 59.4709 41.7491 59.0489 41.1103C58.539 40.3309 57.4724 40.3016 56.8922 40.8642C55.8549 41.8488 55.6146 43.4077 55.8138 44.7322C55.8373 44.8728 55.9486 44.9901 56.0951 45.0252C56.2944 45.0662 56.4937 44.9373 56.5288 44.7322C56.7164 43.9586 56.986 43.1264 57.5075 42.552C57.5251 43.3081 57.3786 44.1403 57.2145 44.9022C56.6695 47.3343 55.5091 49.7313 54.2373 51.8997C52.9421 54.1092 51.3715 56.178 49.6016 57.8131C47.9899 59.2841 45.3116 61.0541 43.6061 59.1669C42.6977 57.9245 42.5336 56.3011 42.4457 54.6249C42.4399 47.305 44.5145 40.0085 46.6537 32.9289C51.1195 26.5349 54.8703 19.4143 57.0563 14.9719C58.9669 10.7288 61.3697 6.4564 61.6686 1.69757C61.6979 1.16425 61.44 0.332038 60.7543 0.0917519C58.8321 -0.66427 56.7046 3.46162 55.8197 4.78026C53.5223 8.4666 47.9489 19.5784 43.7409 31.1941C42.3109 33.1281 40.8106 35.0035 39.2224 36.8086C33.2328 43.648 27.1729 46.2032 25.8074 38.8423C26.0594 38.2914 26.3055 37.7405 26.5517 37.1837C27.6418 34.7047 28.6791 32.1904 29.6109 29.6235C30.742 26.3884 31.92 23.001 32.2013 19.4611C32.3479 17.8788 32.0314 15.4349 30.1853 14.7316C29.2476 14.2979 28.1985 14.5851 27.5363 15.2825C26.0828 16.859 25.3854 18.963 24.6646 20.8384C24.2074 22.1629 23.8148 23.4933 23.469 24.8353C22.461 29.0316 21.3885 34.7926 22.3613 39.5631C21.7929 40.8232 21.2127 42.0832 20.6207 43.3315C14.8656 55.3634 8.25479 67.0847 0.149535 77.6748C-0.0790298 77.9678 -0.043866 78.3957 0.243305 78.6477C0.536337 78.9055 0.987605 78.8704 1.23961 78.5774C4.79116 74.4925 7.99106 70.1146 10.98 65.6136C15.7037 58.4637 19.9643 51.0089 23.7151 43.3022C23.8441 43.5308 23.9847 43.7593 24.1312 43.982C25.6492 46.2091 28.6146 47.2698 31.2285 46.7014C34.4284 45.9981 37.7045 43.5483 40.8282 40.2371C37.5345 52.0345 36.9953 62.4489 44.3504 63.8027C52.5788 65.0452 59.9573 49.9892 59.5939 43.0912V43.0854ZM27.8527 21.9402C28.2161 20.8853 28.5795 19.8421 29.0483 18.8868C29.0483 19.0216 29.0483 19.1623 29.0425 19.3029C28.8198 22.4676 27.8 25.5386 26.7744 28.6272C26.4521 29.559 26.1121 30.4791 25.7605 31.4051C26.1239 28.2052 26.8506 24.9877 27.8527 21.9343V21.9402ZM55.8431 9.39258C56.8101 7.47029 57.8416 5.44251 59.0606 3.65502C58.9141 4.00079 58.7559 4.34657 58.6094 4.69235C57.3669 7.74574 56.0131 10.7464 54.4776 13.6884C53.5633 15.429 52.6198 17.1579 51.6469 18.8751C52.9363 15.6635 54.3252 12.4987 55.8373 9.39258H55.8431ZM57.8592 42.2297C57.8592 42.2297 57.8826 42.2063 57.8944 42.2004C57.9471 42.1711 57.9647 42.2063 57.8592 42.2297Z" fill="#100C08"/>
<path id="Vector_3" d="M58.4804 32.46C58.8966 33.4095 60.18 32.9816 60.5141 32.2959C61.0884 31.2879 61.4518 30.3561 61.5514 29.1019C61.569 28.7561 61.6042 28.0587 61.2818 27.7247C61.2115 27.6602 61.1236 27.6133 61.0474 27.5606C60.684 27.332 60.1683 27.2558 59.7698 27.4433C59.5354 27.5547 59.2951 27.8067 59.1603 27.9649C58.6094 28.6565 57.912 29.4946 58.1229 30.4205C58.2109 30.5788 58.1522 30.7253 58.5097 30.9128C58.3398 31.4168 58.1874 31.9502 58.4746 32.46H58.4804Z" fill="#100C08"/>
</g>
</svg>
