<svg width="243" height="40" viewBox="0 0 243 40" fill="none" xmlns="http://www.w3.org/2000/svg">
<g id="logo-addcontrolling">
<path id="Path 68051" d="M94.6539 28.2853C95.2995 27.1653 96.2486 26.24 97.3975 25.6107C98.5901 24.9627 99.9331 24.632 101.298 24.6507C102.874 24.6187 104.419 25.0587 105.727 25.9147C106.993 26.7547 107.929 27.9867 108.383 29.4107H104.903C104.597 28.7493 104.085 28.1973 103.445 27.832C102.783 27.472 102.034 27.2907 101.273 27.304C100.45 27.2907 99.6377 27.496 98.9293 27.904C98.24 28.3093 97.6874 28.896 97.3291 29.6C96.5659 31.2293 96.5659 33.1013 97.3291 34.728C97.682 35.4347 98.2372 36.0267 98.9293 36.4347C99.6377 36.8427 100.45 37.0507 101.273 37.0347C102.034 37.0507 102.783 36.864 103.445 36.4987C104.085 36.1253 104.594 35.5707 104.903 34.9093H108.383C107.934 36.3387 107.001 37.5733 105.738 38.416C104.425 39.2667 102.874 39.704 101.298 39.6693C99.9331 39.688 98.5901 39.3573 97.3975 38.712C96.2514 38.0853 95.3022 37.1627 94.6539 36.048C93.3136 33.6267 93.3136 30.7093 94.6539 28.2853Z" fill="#4E4D4D"/>
<path id="Path 68052" d="M113.848 38.7226C112.68 38.0906 111.712 37.1626 111.039 36.0373C109.657 33.6293 109.657 30.6933 111.039 28.2853C111.712 27.16 112.68 26.232 113.848 25.6C116.274 24.3093 119.209 24.3093 121.638 25.6C122.798 26.2346 123.761 27.1626 124.425 28.2853C125.793 30.696 125.793 33.624 124.425 36.0373C123.761 37.1626 122.792 38.0933 121.627 38.7226C119.204 40.0133 116.271 40.0133 113.848 38.7226ZM120.136 36.4586C120.834 36.0506 121.397 35.4533 121.756 34.7413C122.158 33.936 122.36 33.048 122.338 32.152C122.36 31.2586 122.158 30.3733 121.756 29.5706C121.395 28.864 120.834 28.2746 120.136 27.8746C119.406 27.472 118.577 27.2666 117.738 27.2853C116.895 27.2693 116.064 27.472 115.328 27.8746C114.625 28.272 114.059 28.8613 113.697 29.5706C113.293 30.3733 113.093 31.2586 113.115 32.152C113.096 33.048 113.295 33.936 113.697 34.7413C114.059 35.456 114.625 36.0533 115.328 36.4586C116.061 36.8666 116.892 37.0746 117.738 37.0586C118.577 37.0746 119.406 36.8693 120.136 36.4586Z" fill="#4E4D4D"/>
<path id="Path 68053" d="M140.846 39.544H137.82L130.971 29.4533V39.544H127.946V24.8213H130.971L137.82 34.9306V24.8213H140.846V39.544Z" fill="#4E4D4D"/>
<path id="Path 68054" d="M153.847 24.84V27.2213H149.829V39.544H146.803V27.2213H142.785V24.84H153.847Z" fill="#4E4D4D"/>
<path id="Path 68055" d="M163.574 39.5441L160.248 33.8134H158.822V39.5441H155.797V24.8427H161.457C162.485 24.8134 163.505 25.0187 164.438 25.4427C165.204 25.7947 165.847 26.3574 166.284 27.0641C166.697 27.7574 166.911 28.5467 166.9 29.3494C166.908 30.2907 166.604 31.2107 166.036 31.9707C165.401 32.7867 164.49 33.3574 163.464 33.5814L167.072 39.5414H163.574V39.5441ZM158.82 31.6027H161.347C162.168 31.6027 162.78 31.4107 163.183 31.0241C163.604 30.5921 163.823 30.0081 163.787 29.4134C163.823 28.8294 163.604 28.2587 163.183 27.8454C162.778 27.4747 162.168 27.2881 161.347 27.2881H158.82V31.6054V31.6027Z" fill="#4E4D4D"/>
<path id="Path 68056" d="M172.499 38.7226C171.331 38.0906 170.363 37.1626 169.69 36.0373C168.309 33.6293 168.309 30.6933 169.69 28.2853C170.36 27.16 171.331 26.232 172.499 25.6C174.925 24.3093 177.86 24.3093 180.289 25.6C181.449 26.2346 182.412 27.1626 183.077 28.2853C184.444 30.696 184.444 33.624 183.077 36.0373C182.412 37.1626 181.444 38.0933 180.278 38.7226C177.855 40.0133 174.923 40.0133 172.499 38.7226ZM178.788 36.4586C179.485 36.0506 180.049 35.4533 180.407 34.7413C180.809 33.936 181.012 33.048 180.99 32.152C181.012 31.2586 180.809 30.3733 180.407 29.5706C180.046 28.864 179.485 28.2746 178.788 27.8746C178.057 27.472 177.229 27.2666 176.389 27.2853C175.546 27.2693 174.715 27.472 173.979 27.8746C173.276 28.272 172.71 28.8613 172.349 29.5706C171.944 30.3733 171.744 31.2586 171.766 32.152C171.747 33.048 171.947 33.936 172.349 34.7413C172.71 35.456 173.276 36.0533 173.979 36.4586C174.712 36.8666 175.544 37.0746 176.389 37.0586C177.229 37.0746 178.057 36.8693 178.788 36.4586Z" fill="#4E4D4D"/>
<path id="Path 68057" d="M189.625 37.2053H194.595V39.544H186.603V24.8427H189.625V37.208V37.2053Z" fill="#4E4D4D"/>
<path id="Path 68058" d="M199.44 37.2053H204.41V39.544H196.414V24.8427H199.44V37.208V37.2053Z" fill="#4E4D4D"/>
<path id="Rectangle 16593" d="M209.254 24.84H206.229V39.5413H209.254V24.84Z" fill="#4E4D4D"/>
<path id="Path 68059" d="M225.434 39.544H222.408L215.562 29.4533V39.544H212.536V24.8213H215.562L222.411 34.9306V24.8213H225.436V39.544H225.434Z" fill="#4E4D4D"/>
<path id="Path 68060" d="M239.154 29.264C238.831 28.6666 238.334 28.176 237.729 27.8533C237.078 27.52 236.348 27.352 235.612 27.368C234.78 27.352 233.96 27.5573 233.235 27.9573C232.54 28.3546 231.977 28.9413 231.616 29.6426C230.833 31.256 230.839 33.128 231.626 34.7413C231.998 35.448 232.573 36.032 233.279 36.4266C234.031 36.832 234.882 37.0346 235.74 37.016C236.763 37.0586 237.767 36.7413 238.572 36.12C239.335 35.4746 239.846 34.5946 240.019 33.624H234.835V31.3706H243.003V33.9413C242.798 34.9733 242.355 35.9466 241.706 36.784C241.031 37.6666 240.153 38.384 239.146 38.88C238.057 39.416 236.854 39.688 235.634 39.6693C234.255 39.688 232.898 39.3573 231.689 38.712C230.532 38.0906 229.575 37.168 228.924 36.048C227.584 33.6266 227.584 30.7093 228.924 28.2853C229.572 27.16 230.53 26.2346 231.689 25.6106C234.324 24.248 237.499 24.344 240.04 25.864C241.288 26.664 242.207 27.8693 242.634 29.2666H239.154V29.264Z" fill="#4E4D4D"/>
<path id="Path 68061" d="M84.4101 13.7653C82.9139 11.2027 80.6709 9.12802 77.9684 7.80268C75.1893 6.40802 71.967 5.70935 68.3044 5.70935H58.665C61.1843 7.10402 63.3179 9.07735 64.8825 11.4534H68.0555C71.7181 11.4534 74.5465 12.4507 76.546 14.448C78.5428 16.4453 79.5439 19.2107 79.5412 22.7493C79.5412 26.288 78.5428 29.0293 76.546 30.976C74.5492 32.9227 71.7181 33.896 68.0555 33.896H64.9919C63.441 36.2853 61.3183 38.2747 58.8073 39.6907H68.3071C71.9698 39.6907 75.1893 38.992 77.9711 37.5973C80.6654 36.28 82.9029 34.224 84.4101 31.6827C85.9255 29.136 86.6832 26.1573 86.6832 22.7493C86.6832 19.3413 85.9255 16.3467 84.4101 13.7653Z" fill="#1072B9"/>
<path id="Path 68062" d="M61.5754 13.7573C60.0791 11.1947 57.8389 9.12267 55.1391 7.79733C52.36 6.40267 49.1432 5.70667 45.4861 5.70667H33.311V14.4587L40.2971 27.3013V11.448H45.2371C48.897 11.448 51.7227 12.4453 53.7195 14.44C55.7163 16.4347 56.7147 19.1973 56.7147 22.7333C56.7147 26.2693 55.7163 29.008 53.7195 30.9547C51.7227 32.9013 48.897 33.872 45.2371 33.872H43.8695L46.9932 39.616C49.8271 39.5013 52.6034 38.8053 55.1391 37.568C57.8307 36.2533 60.0682 34.1973 61.5754 31.6587C63.088 29.1147 63.8457 26.1387 63.8457 22.7333C63.8457 19.328 63.088 16.336 61.5754 13.76" fill="#28AAE2"/>
<path id="Path 68063" d="M21.2564 0L0 40H7.68359L7.71368 39.944V40H42.51L21.2564 0ZM11.2724 33.5573L21.2564 14.768L31.2404 33.5547H11.2724V33.5573Z" fill="#42C0EE"/>
<path id="Path 68064" d="M102.422 5.58667H96.6918V0H93.7705V5.58667H88.0399V8.432H93.7705V14.0187H96.6918V8.432H102.422V5.58667Z" fill="#EC6626"/>
</g>
</svg>
