<svg width="222" height="44" viewBox="0 0 222 44" fill="none" xmlns="http://www.w3.org/2000/svg">
<g id="Layer_1" clip-path="url(#clip0_245_255)">
<g id="Group">
<path id="Vector" d="M72.4026 11.9996L63.7975 21.9999L73.1621 32.4471V32.7159H67.4639L59.6145 23.8175V32.7159H54.8879V11.8784H59.6145V20.4777L66.6736 11.8784H72.3987V11.9958L72.4026 11.9996Z" fill="#231C34"/>
<path id="Vector_2" d="M85.368 18.009H89.4585V32.7122H85.5184L85.2755 30.8682C84.277 32.4169 82.1257 33.0114 80.6684 33.0417C76.1847 33.0719 72.9424 30.2131 72.9424 25.3625C72.9424 20.5119 76.3659 17.6227 80.7918 17.6833C82.6693 17.6833 84.4273 18.399 85.2177 19.7053L85.368 18.009ZM77.3066 25.3587C77.3066 27.7972 79.0646 29.2286 81.2467 29.2286C83.7025 29.2286 85.2177 27.3542 85.2177 25.5102C85.2177 23.3973 83.8529 21.4623 81.2467 21.4623C79.0646 21.4623 77.3066 22.9201 77.3066 25.3625V25.3587Z" fill="#231C34"/>
<path id="Vector_3" d="M108.854 11.9087V32.7121H104.945L104.671 30.8378C103.276 32.5948 101.579 32.981 99.702 32.981C95.3069 32.981 92.3075 29.9442 92.3075 25.3624C92.3075 20.7806 95.3686 17.7135 99.7598 17.7135C101.518 17.7135 103.183 18.2474 104.456 19.7961V11.9087H108.851H108.854ZM96.7025 25.3624C96.7025 27.4753 98.0365 29.1414 100.369 29.1414C102.339 29.1414 104.398 28.1607 104.398 25.3624C104.398 22.8935 102.366 21.5834 100.369 21.5834C98.1252 21.5834 96.7025 23.1624 96.7025 25.3624Z" fill="#231C34"/>
<path id="Vector_4" d="M116.611 18.0392L116.943 19.6447C117.941 18.2739 119.275 17.6794 120.941 17.6794C122.363 17.6794 123.547 18.096 124.607 19.0199L122.788 22.4127C122.059 21.9053 121.303 21.6705 120.393 21.6705C118.516 21.6705 116.908 22.8595 116.908 25.0633V32.7121H112.544V18.0392H116.604H116.611Z" fill="#231C34"/>
<path id="Vector_5" d="M125.035 25.3927C125.035 20.9586 128.247 17.6832 133.216 17.6832C138.186 17.6832 141.428 20.9586 141.428 25.3927C141.428 29.8268 138.305 33.0416 133.216 33.0416C128.127 33.0416 125.035 29.8268 125.035 25.3927ZM137.006 25.3927C137.006 23.5486 135.853 21.5228 133.22 21.5228C130.587 21.5228 129.461 23.5448 129.461 25.3927C129.461 27.2405 130.583 29.2323 133.22 29.2323C135.857 29.2323 137.006 27.3276 137.006 25.3927Z" fill="#231C34"/>
<path id="Vector_6" d="M153.881 32.7122V24.8247C153.881 22.8898 153.094 21.6099 151.305 21.6099C149.516 21.6099 148.607 23.1889 148.607 24.855V32.7122H144.242V18.0089H148.059L148.364 19.675C149.304 18.0695 151.031 17.6795 152.304 17.6795C153.938 17.6795 155.696 18.274 156.668 20.4172C158.002 18.4216 159.424 17.6492 161.637 17.6492C164.76 17.6492 167.605 19.1979 167.605 24.6733V32.7084H163.21V24.7604C163.21 22.9163 162.694 21.6932 160.94 21.6932C159.185 21.6932 158.183 23.1511 158.183 24.8172V32.7046H153.881V32.7122Z" fill="#231C34"/>
<path id="Vector_7" d="M175.759 14.1125C175.759 17.3273 170.79 17.3273 170.79 14.1125C170.79 10.8977 175.759 10.8977 175.759 14.1125ZM171.094 17.9824V32.716H175.459V17.9824H171.094Z" fill="#231C34"/>
<path id="Vector_8" d="M182.726 26.7597C182.938 28.1872 184.334 29.3497 186.786 29.3497C187.969 29.3497 189.604 29.0809 190.664 28.1872L193.12 30.8643C191.512 32.413 188.937 33.0378 186.697 33.0378C181.273 33.0378 178.304 29.9139 178.304 25.211C178.304 20.5081 181.365 17.6227 186.242 17.6227C191.119 17.6227 194.666 20.7466 193.725 26.7597H182.726ZM189.816 23.6358C189.723 22.0303 188.058 21.2843 186.242 21.2843C184.426 21.2843 183.15 22.1779 182.726 23.6358H189.816Z" fill="#231C34"/>
<path id="Vector_9" d="M200.696 18.0392L201.027 19.6447C202.026 18.2739 203.36 17.6794 205.025 17.6794C206.448 17.6794 207.631 18.096 208.691 19.0199L206.872 22.4127C206.143 21.9053 205.387 21.6705 204.478 21.6705C202.6 21.6705 200.992 22.8595 200.992 25.0633V32.7121H196.628V18.0392H200.688H200.696Z" fill="#231C34"/>
<path id="Vector_10" d="M221.695 18.0089V20.0915L215.423 28.7514H222V32.7084H209.362V30.8946L215.939 21.7273H209.941V18.0089H221.699H221.695Z" fill="#231C34"/>
</g>
<g id="Group_2">
<path id="Vector_11" d="M22.3993 0C10.0276 0 0 9.84888 0 22C0 27.483 2.04717 32.4926 5.42441 36.3473C7.1246 28.6757 14.0757 22.9277 22.3955 22.9277C30.7152 22.9277 37.6663 28.6757 39.3665 36.3473C42.7438 32.4964 44.7909 27.483 44.7909 22C44.7948 9.84888 34.7671 0 22.3993 0ZM22.3993 20.1976C17.7691 20.1976 14.0179 16.5133 14.0179 11.9656C14.0179 7.4179 17.7691 3.73356 22.3993 3.73356C27.0295 3.73356 30.7807 7.4179 30.7807 11.9656C30.7807 16.5133 27.0295 20.1976 22.3993 20.1976Z" fill="#FF6B00"/>
<g id="Group_3">
<path id="Vector_12" d="M23.3401 36.0937C21.9907 35.7794 20.5373 36.1467 19.5118 37.1539C17.9157 38.7216 17.9157 41.2586 19.5118 42.8262C21.1079 44.3939 23.6909 44.3939 25.287 42.8262C26.3241 41.8076 26.6826 40.3725 26.3665 39.0661L32.3576 30.2094L23.3401 36.0937ZM22.3994 41.7849C21.3893 41.7849 20.572 40.9822 20.572 39.9901C20.572 38.998 21.3893 38.1952 22.3994 38.1952C23.4095 38.1952 24.2268 38.998 24.2268 39.9901C24.2268 40.9822 23.4095 41.7849 22.3994 41.7849Z" fill="#FF6B00"/>
<path id="Vector_13" d="M8.82867 36.23C8.80554 36.3171 8.8518 36.408 8.94047 36.4383C9.02914 36.4686 9.12167 36.4269 9.16022 36.3436C11.9553 29.8913 19.9165 26.862 26.5168 30.1488L29.6203 28.1229C21.5705 23.3708 11.2382 27.661 8.83252 36.23H8.82867Z" fill="#FF6B00"/>
</g>
</g>
</g>
<defs>
<clipPath id="clip0_245_255">
<rect width="222" height="44" fill="white"/>
</clipPath>
</defs>
</svg>
